<svg width="800" height="600" viewBox="0 0 800 600" xmlns="http://www.w3.org/2000/svg">
  <defs>
    <filter id="grain">
      <feTurbulence type="fractalNoise" baseFrequency="0.8" numOctaves="3" stitchTiles="stitch" />
      <feColorMatrix type="matrix" values="0 0 0 0 0  0 0 0 0 0  0 0 0 0 0  0 0 0 0.2 0" />
    </filter>
    <radialGradient id="vignette" cx="50%" cy="50%" r="70%">
        <stop offset="0%" stop-color="#000" stop-opacity="0" />
        <stop offset="100%" stop-color="#000" stop-opacity="0.8" />
    </radialGradient>
  </defs>

  <!-- Wall Background -->
  <rect width="800" height="600" fill="#222" />
  <rect width="800" height="500" fill="#333" />

  <!-- Wallpaper Pattern -->
  <path d="M50,0 L50,500 M150,0 L150,500 M250,0 L250,500 M350,0 L350,500 M450,0 L450,500 M550,0 L550,500 M650,0 L650,500 M750,0 L750,500" stroke="#2a2a2a" stroke-width="2" />

  <!-- Peeling Wallpaper -->
  <path d="M100,100 L120,150 L110,200 M600,300 L620,350 L580,400" stroke="#111" stroke-width="2" fill="none" />

  <!-- Floor -->
  <rect y="500" width="800" height="100" fill="#1a1a1a" />
  <path d="M0,500 L800,500" stroke="#000" stroke-width="4" />
  <line x1="0" y1="520" x2="800" y2="520" stroke="#111" stroke-width="1" />
  <line x1="0" y1="550" x2="800" y2="550" stroke="#111" stroke-width="1" />
  <line x1="0" y1="580" x2="800" y2="580" stroke="#111" stroke-width="1" />

  <!-- Bed (Left) -->
  <g transform="translate(50, 420)">
      <rect x="0" y="20" width="200" height="60" fill="#2d2d2d" stroke="#111" stroke-width="2" />
      <rect x="0" y="0" width="200" height="80" fill="none" stroke="#111" stroke-width="3" />
      <path d="M10,20 Q50,15 90,20 Q130,25 170,20" stroke="#444" stroke-width="2" fill="none" />
      <circle cx="30" cy="10" r="15" fill="#555" opacity="0.5" />
  </g>

  <!-- Window (Center-Right) -->
  <g transform="translate(500, 100)">
      <rect x="0" y="0" width="120" height="150" fill="#111" stroke="#000" stroke-width="5" />
      <line x1="60" y1="0" x2="60" y2="150" stroke="#000" stroke-width="3" />
      <line x1="0" y1="75" x2="120" y2="75" stroke="#000" stroke-width="3" />
      <circle cx="90" cy="40" r="20" fill="#ccccff" opacity="0.1" />
  </g>

  <!-- Overlay Grain & Vignette -->
  <rect width="800" height="600" filter="url(#grain)" opacity="0.3" />
  <rect width="800" height="600" fill="url(#vignette)" />

</svg>