<svg width="64" height="64" viewBox="0 0 64 64" xmlns="http://www.w3.org/2000/svg">
  <!-- Frame 1: Walk Stride Left -->

  <!-- Head -->
  <circle cx="32" cy="22" r="14" fill="#E0E0E0" stroke="#333" stroke-width="2" />
  <!-- Eyes -->
  <circle cx="28" cy="20" r="4" fill="#000" />
  <circle cx="38" cy="20" r="3" fill="#000" />
  <!-- Mouth -->
  <path d="M28 30 Q32 34 36 30" stroke="#333" stroke-width="1" fill="none" />

  <!-- Hair -->
  <path d="M18 22 Q18 12 32 8 Q46 12 46 22 L48 32 Q48 37 40 32 L46 22 L44 16 Q32 12 20 16 L18 22 L16 32 Q16 37 24 32 L18 22" fill="#111" />

  <!-- Body -->
  <path d="M24 36 L22 56 L42 56 L40 36 Z" fill="#4A235A" />

  <!-- Arms (Swinging) -->
  <line x1="24" y1="38" x2="16" y2="42" stroke="#E0E0E0" stroke-width="3" />
  <line x1="40" y1="38" x2="48" y2="42" stroke="#E0E0E0" stroke-width="3" />

  <!-- Legs (Stepping) -->
  <line x1="28" y1="56" x2="24" y2="64" stroke="#333" stroke-width="2" />
  <line x1="36" y1="56" x2="40" y2="64" stroke="#333" stroke-width="2" />
</svg>
